<svg xmlns="http://www.w3.org/2000/svg" viewBox="0 0 24 24">
  <path d="M12 2C11.311413 2 10.636118 2.0699414 9.9863281 2.203125C9.6617644 2.2697142 9.3416565 2.3538732 9.0292969 2.4511719C8.7169509 2.5485313 8.409787 2.6607204 8.1113281 2.7871094C7.8129392 2.9136692 7.5211228 3.055073 7.2382812 3.2089844C6.9554077 3.3628467 6.6777262 3.5314024 6.4121094 3.7109375C6.1464971 3.8905336 5.8892472 4.0835184 5.6425781 4.2871094C5.148501 4.6950303 4.6950303 5.148501 4.2871094 5.6425781C4.2871094 5.6425781 4.2871094 5.6445312 4.2871094 5.6445312C4.0835184 5.8912003 3.8905336 6.1464971 3.7109375 6.4121094C3.7109375 6.4121094 3.7109375 6.4140625 3.7109375 6.4140625C3.5309874 6.6801221 3.363175 6.9549265 3.2089844 7.2382812C3.054856 7.521644 2.9137891 7.8123359 2.7871094 8.1113281C2.7871094 8.1113281 2.7871094 8.1132812 2.7871094 8.1132812C2.6607204 8.4117401 2.5485313 8.7169509 2.4511719 9.0292969C2.4511719 9.0292969 2.4511719 9.03125 2.4511719 9.03125C2.3538732 9.3436097 2.2697142 9.6617644 2.203125 9.9863281C2.203125 9.9863281 2.203125 9.9882812 2.203125 9.9882812C2.0699414 10.638071 2 11.311413 2 12C2 12.329331 2.0194376 12.653372 2.0507812 12.974609C2.0587956 13.056835 2.0720264 13.137112 2.0820312 13.21875C2.1098571 13.445565 2.1427083 13.670679 2.1855469 13.892578C2.2094159 14.016373 2.2391693 14.137623 2.2675781 14.259766C2.3102404 14.443046 2.3555753 14.625396 2.4082031 14.804688C2.4433374 14.924465 2.4820205 15.042271 2.5214844 15.160156C2.5798559 15.334429 2.6433565 15.505899 2.7109375 15.675781C2.7589437 15.796514 2.8068469 15.916769 2.859375 16.035156C2.9316717 16.198053 3.0092341 16.35741 3.0898438 16.515625C3.1477598 16.629343 3.2035363 16.744294 3.265625 16.855469C3.3613823 17.026877 3.466918 17.192368 3.5722656 17.357422C3.6289659 17.446256 3.6808369 17.538095 3.7402344 17.625C3.904701 17.865702 4.0774749 18.099133 4.2617188 18.324219L4.2636719 18.322266C4.6869004 18.839035 5.1609647 19.3131 5.6777344 19.736328L5.6757812 19.738281C5.9008667 19.922525 6.1342981 20.095299 6.375 20.259766C6.4619053 20.319163 6.5537443 20.371034 6.6425781 20.427734C6.8076317 20.533082 6.9731232 20.638618 7.1445312 20.734375C7.2557056 20.796464 7.3706568 20.85224 7.484375 20.910156C7.6425905 20.990766 7.8019467 21.068328 7.9648438 21.140625C8.0832306 21.193153 8.2034862 21.241056 8.3242188 21.289062C8.4941005 21.356644 8.6655711 21.420144 8.8398438 21.478516C8.9577288 21.51798 9.0755352 21.556663 9.1953125 21.591797C9.3746035 21.644425 9.5569545 21.68976 9.7402344 21.732422C9.862377 21.760831 9.9836271 21.790584 10.107422 21.814453C10.329321 21.857292 10.554435 21.890143 10.78125 21.917969C10.862888 21.927974 10.943165 21.941204 11.025391 21.949219C11.346628 21.980562 11.670669 22 12 22C12.688587 22 13.361929 21.930059 14.011719 21.796875C15.637623 21.463 17.121842 20.733456 18.357422 19.712891C18.851499 19.30497 19.30497 18.851499 19.712891 18.357422C19.713222 18.35702 19.712559 18.355871 19.712891 18.355469C19.916576 18.108799 20.109365 17.853488 20.289062 17.587891C20.289373 17.587431 20.288752 17.586397 20.289062 17.585938C20.648637 17.0543 20.959541 16.485991 21.212891 15.888672C21.213128 15.888111 21.212653 15.88728 21.212891 15.886719C21.339391 15.588323 21.451362 15.282958 21.548828 14.970703C21.549015 14.970105 21.548642 14.969348 21.548828 14.96875C21.646234 14.656482 21.730187 14.338112 21.796875 14.013672C21.797003 14.013046 21.796747 14.012344 21.796875 14.011719C21.930059 13.361929 22 12.688587 22 12C22 11.670669 21.980562 11.346628 21.949219 11.025391C21.941204 10.943165 21.927974 10.862888 21.917969 10.78125C21.890143 10.554435 21.857292 10.329321 21.814453 10.107422C21.790584 9.9836271 21.760831 9.862377 21.732422 9.7402344C21.68976 9.5569545 21.644425 9.3746035 21.591797 9.1953125C21.556663 9.0755352 21.51798 8.9577288 21.478516 8.8398438C21.420144 8.6655711 21.356644 8.4941005 21.289062 8.3242188C21.241056 8.2034862 21.193153 8.0832306 21.140625 7.9648438C21.068328 7.8019467 20.990766 7.6425905 20.910156 7.484375C20.85224 7.3706568 20.796464 7.2557056 20.734375 7.1445312C20.638618 6.9731232 20.533082 6.8076317 20.427734 6.6425781C20.371034 6.5537443 20.319163 6.4619053 20.259766 6.375C20.095299 6.1342981 19.922525 5.9008667 19.738281 5.6757812L19.736328 5.6777344C19.3131 5.1609647 18.839035 4.6869004 18.322266 4.2636719L18.324219 4.2617188C18.099133 4.0774749 17.865702 3.904701 17.625 3.7402344C17.538095 3.6808369 17.446256 3.6289659 17.357422 3.5722656C17.192368 3.466918 17.026877 3.3613823 16.855469 3.265625C16.744294 3.2035363 16.629343 3.1477598 16.515625 3.0898438C16.35741 3.0092341 16.198053 2.9316717 16.035156 2.859375C15.916769 2.8068469 15.796514 2.7589437 15.675781 2.7109375C15.505899 2.6433565 15.334429 2.5798559 15.160156 2.5214844C15.042271 2.4820205 14.924465 2.4433374 14.804688 2.4082031C14.625396 2.3555753 14.443046 2.3102404 14.259766 2.2675781C14.137623 2.2391693 14.016373 2.2094159 13.892578 2.1855469C13.670679 2.1427083 13.445565 2.1098571 13.21875 2.0820312C13.137112 2.0720264 13.056835 2.0587956 12.974609 2.0507812C12.653372 2.0194376 12.329331 2 12 2 z M 16.904297 5.6816406C17.433193 6.0922215 17.907779 6.5668072 18.318359 7.0957031L16.882812 8.53125C16.493041 7.9849709 16.015029 7.5069589 15.46875 7.1171875L16.904297 5.6816406 z M 12 8C12.230013 8 12.450874 8.0297299 12.669922 8.0664062C12.778245 8.0857976 12.885211 8.1085599 12.990234 8.1367188C13.05792 8.1538683 13.123229 8.1767432 13.189453 8.1972656C13.480456 8.2920851 13.759788 8.4131796 14.019531 8.5664062L14.023438 8.5625C14.609763 8.9065093 15.093491 9.3902367 15.4375 9.9765625L15.433594 9.9804688C15.58682 10.240212 15.707915 10.519544 15.802734 10.810547C15.823257 10.876771 15.846132 10.94208 15.863281 11.009766C15.89144 11.114789 15.914202 11.221755 15.933594 11.330078C15.97027 11.549126 16 11.769987 16 12C16 14.209 14.209 16 12 16C11.769987 16 11.549126 15.97027 11.330078 15.933594C11.221755 15.914202 11.114789 15.89144 11.009766 15.863281C10.94208 15.846132 10.876771 15.823257 10.810547 15.802734C10.519544 15.707915 10.240212 15.58682 9.9804688 15.433594L9.9765625 15.4375C9.3902367 15.093491 8.9065093 14.609763 8.5625 14.023438L8.5664062 14.019531C8.4131796 13.759788 8.2920851 13.480456 8.1972656 13.189453C8.1767432 13.123229 8.1538683 13.05792 8.1367188 12.990234C8.1085599 12.885211 8.0857976 12.778245 8.0664062 12.669922C8.0297299 12.450874 8 12.230013 8 12C8 9.791 9.791 8 12 8 z M 12 11 A 1 1 0 0 0 11 12 A 1 1 0 0 0 12 13 A 1 1 0 0 0 13 12 A 1 1 0 0 0 12 11 z M 7.1171875 15.46875C7.5069589 16.015029 7.9849709 16.493041 8.53125 16.882812L7.0957031 18.318359C6.5668072 17.907779 6.0922215 17.433193 5.6816406 16.904297L7.1171875 15.46875 z" fill="#5B5B5B" />
</svg>