<svg xmlns="http://www.w3.org/2000/svg" viewBox="0 0 35 35">
  <path d="M21 0L8 4.625C7.449219 4.808594 7 5.417969 7 5.96875L7 17.78125C6.546875 17.707031 6.035156 17.714844 5.5 17.84375C3.566406 18.316406 2 20.0625 2 21.71875C2 23.375 3.566406 24.316406 5.5 23.84375C7.410156 23.378906 8.960938 21.699219 9 20.0625C9 20.042969 9 20.019531 9 20L9 8.28125L20 4.34375L20 14.78125C19.546875 14.707031 19.035156 14.714844 18.5 14.84375C16.566406 15.316406 15 17.0625 15 18.71875C15 20.375 16.566406 21.316406 18.5 20.84375C20.433594 20.371094 22 18.65625 22 17L22 1C22 0.449219 21.550781 0 21 0Z" fill="#FFFFFF" />
</svg>