<svg xmlns="http://www.w3.org/2000/svg" viewBox="0 0 35 35">
  <path d="M14.970703 3.9726562 A 2.0002 2.0002 0 0 0 14.685547 4L7 4L6 4C5.448 4 5 4.448 5 5L5 8C5 8.552 5.448 9 6 9L7 9C7.552 9 8 8.552 8 8L8 7L13 7L13 23L12 23C11.448 23 11 23.448 11 24L11 25C11 25.552 11.448 26 12 26L14.675781 26 A 2.0002 2.0002 0 0 0 15.324219 26L18 26C18.552 26 19 25.552 19 25L19 24C19 23.448 18.552 23 18 23L17 23L17 7L22 7L22 8C22 8.552 22.448 9 23 9L24 9C24.552 9 25 8.552 25 8L25 5C25 4.448 24.552 4 24 4L23 4L15.320312 4 A 2.0002 2.0002 0 0 0 14.970703 3.9726562 z" fill="#FFFFFF" />
</svg>