<svg xmlns="http://www.w3.org/2000/svg" viewBox="0 0 50 50">
  <path d="M39.28125 0C37.660156 0.0625 36.429688 0.488281 33.9375 2.9375C33.488281 3.351563 22.925781 13.078125 21.1875 16.375C19.828125 18.957031 18.238281 21.632813 16.84375 24C15.90625 25.597656 15.035156 27.101563 14.375 28.3125C11.796875 33.023438 10.96875 36.597656 11.875 39.21875C12.160156 40.046875 12.632813 40.753906 13.25 41.375C13.253906 41.382813 13.246094 41.398438 13.25 41.40625C13.425781 41.636719 13.433594 41.617188 13.25 42.625L13.125 43.28125C12.753906 45.378906 13.324219 47.539063 14.625 48.84375C14.96875 49.191406 15.769531 50 16.78125 50C17.242188 50 17.679688 49.820313 18.03125 49.5C19.257813 48.375 18.472656 47.109375 17.90625 46.1875C17.800781 45.992188 17.636719 45.152344 17.75 44.5C17.816406 44.113281 17.992188 43.742188 18.71875 43.5C21.441406 43.335938 23.71875 41.394531 25.1875 37.96875C26.167969 35.679688 26.433594 33.515625 25.9375 31.71875C25.417969 29.839844 24.101563 28.394531 22.15625 27.5625C22.0625 27.519531 22.015625 27.484375 22 27.5C22.007813 27.46875 22.03125 27.386719 22.125 27.25C23.300781 25.570313 24.300781 24.84375 25.46875 24C26.972656 22.914063 28.6875 21.675781 30.9375 18.25L40.875 1.5C41.058594 1.191406 41.054688 0.8125 40.875 0.5C40.695313 0.1875 40.359375 0 40 0C39.746094 0 39.511719 -0.0078125 39.28125 0 Z M 8.34375 13C3.191406 13 0 15.640625 0 19.90625C0 24.605469 3.257813 27 9.6875 27C10.683594 27 11.777344 26.953125 12.875 26.84375C12.878906 26.84375 12.898438 26.84375 12.90625 26.84375C13.554688 25.683594 14.34375 24.328125 15.125 23C15.730469 21.972656 16.390625 20.863281 17.03125 19.75C16.941406 15.640625 13.542969 13 8.34375 13 Z M 49.0625 13C48.988281 12.996094 48.917969 13.019531 48.84375 13.03125L34.96875 15.375L32.65625 19.28125L32.625 19.3125L32.59375 19.375C30.144531 23.109375 28.222656 24.496094 26.65625 25.625C26.632813 25.640625 26.585938 25.671875 26.5625 25.6875C33.601563 24.304688 46.550781 18 47.0625 17.75C49.84375 16.535156 49.996094 14.164063 50 14.0625C50.015625 13.757813 49.882813 13.453125 49.65625 13.25C49.484375 13.097656 49.285156 13.011719 49.0625 13 Z M 8.5 17C12.996094 17 13 19.257813 13 20C13 20.742188 12.996094 23 8.5 23C3.996094 23 4 20.742188 4 20C4 19.257813 3.996094 17 8.5 17 Z M 21 22C21.554688 22 22 22.445313 22 23C22 23.554688 21.554688 24 21 24C20.445313 24 20 23.554688 20 23C20 22.445313 20.445313 22 21 22 Z M 19.375 30.90625C19.921875 30.886719 20.34375 31.082031 20.59375 31.1875C21.261719 31.472656 23.304688 32.351563 21.5625 36.40625C19.820313 40.457031 17.792969 39.597656 17.125 39.3125C16.457031 39.027344 14.417969 38.148438 16.15625 34.09375C17.246094 31.558594 18.464844 30.9375 19.375 30.90625Z" fill="#FFFFFF" />
</svg>